<?xml version="1.0" encoding="UTF-8" standalone="no"?>
<svg width="32px" height="32px" viewBox="0 0 32 32" version="1.1" xmlns="http://www.w3.org/2000/svg" xmlns:xlink="http://www.w3.org/1999/xlink">
    <!-- Generator: Sketch 40.3 (33839) - http://www.bohemiancoding.com/sketch -->
    <title>Slice</title>
    <desc>Created with Sketch.</desc>
    <defs></defs>
    <g id="Pine" stroke="none" stroke-width="1" fill="none" fill-rule="evenodd">
        <path d="M4,16.4114715 C4,21.9035477 7.55278373,26.5423352 12.4863437,28.1868552 C13.1069172,28.2954556 13.3396323,27.9231114 13.3396323,27.5973103 C13.3396323,27.3025378 13.324118,26.3251344 13.324118,25.2856737 C10.2057358,25.8597043 9.39899012,24.5254711 9.15076069,23.8273258 C9.01113164,23.470496 8.4060724,22.3689779 7.87858486,22.0742054 C7.44418335,21.8414904 6.82360978,21.2674598 7.86307052,21.2519455 C8.8404739,21.2364311 9.53861918,22.1517771 9.77133427,22.5241213 C10.8883667,24.4013564 12.6725157,23.8738688 13.3861754,23.5480677 C13.4947757,22.741322 13.8205769,22.1983202 14.1774067,21.8880334 C11.4158543,21.5777466 8.53018712,20.5072572 8.53018712,15.7598693 C8.53018712,14.4101218 9.01113164,13.2930893 9.80236295,12.4242863 C9.67824823,12.1139995 9.24384673,10.8418237 9.92647766,9.13524635 C9.92647766,9.13524635 10.9659384,8.80944523 13.3396323,10.4074222 C14.3325501,10.1281641 15.3875251,9.98853502 16.4425002,9.98853502 C17.4974753,9.98853502 18.5524504,10.1281641 19.5453681,10.4074222 C21.919062,8.79393089 22.9585228,9.13524635 22.9585228,9.13524635 C23.6411537,10.8418237 23.2067522,12.1139995 23.0826375,12.4242863 C23.8738688,13.2930893 24.3548133,14.3946074 24.3548133,15.7598693 C24.3548133,20.5227715 21.4536319,21.5777466 18.6920794,21.8880334 C19.1419953,22.2758919 19.5298538,23.0205801 19.5298538,24.1841556 C19.5298538,25.8441899 19.5143394,27.1784231 19.5143394,27.5973103 C19.5143394,27.9231114 19.7470545,28.3109699 20.3676281,28.1868552 C25.2701594,26.5423352 28.8229431,21.8880334 28.8229431,16.4114715 C28.8229431,9.55413352 23.2688096,4 16.4114715,4 C9.55413352,4 4,9.55413352 4,16.4114715 Z" id="Shape" fill="#000000"></path>
    </g>
</svg>