<?xml version="1.0" encoding="UTF-8" standalone="no"?>
<svg width="32px" height="32px" viewBox="0 0 32 32" version="1.1" xmlns="http://www.w3.org/2000/svg" xmlns:xlink="http://www.w3.org/1999/xlink">
    <!-- Generator: Sketch 40.3 (33839) - http://www.bohemiancoding.com/sketch -->
    <title>Slice 2</title>
    <desc>Created with Sketch.</desc>
    <defs></defs>
    <g id="Page-1" stroke="none" stroke-width="1" fill="none" fill-rule="evenodd">
        <g id="redis" transform="translate(4.000000, 5.000000)">
            <g id="Slice">
                <g id="Page-1">
                    <g id="redis">
                        <g id="Group">
                            <path d="M22.9852632,16.213615 C21.7111579,16.8953532 15.1107368,19.6810868 13.7055438,20.432987 C12.3003509,21.1851755 11.5197193,21.1778279 10.4096842,20.6331 C9.29964912,20.088372 2.27564912,17.1760012 1.01038596,16.5552044 C0.377964912,16.2448781 0.0454736842,15.9831032 0.0454736842,15.7357354 L0.0454736842,13.2584552 C0.0454736842,13.2584552 9.18975438,11.2149692 10.6661053,10.6713939 C12.1423158,10.1276745 12.6544561,10.108081 13.9107368,10.5804858 C15.1671578,11.0528907 22.6790176,12.4441727 23.9207017,12.910959 C23.9207017,12.910959 23.9201404,15.1234387 23.9201404,15.353086 C23.9202808,15.5980046 23.6338246,15.8666948 22.9852632,16.213615 L22.9852632,16.213615 L22.9852632,16.213615 L22.9852632,16.213615 Z" id="Shape" fill="#000000"></path>
                            <path d="M22.9852632,13.7356145 C21.7111579,14.4170646 15.1107368,17.2030862 13.7055438,17.9549866 C12.3003509,18.707175 11.5197193,18.6998274 10.4096842,18.1550995 C9.29950877,17.6106598 2.27564912,14.6977126 1.01038596,14.0772038 C-0.254877193,13.4564071 -0.281403509,13.0290961 0.96154386,12.5296061 C2.20435087,12.029828 9.18975438,9.21657709 10.6662456,8.67285768 C12.1424562,8.1294264 12.6545965,8.10954478 13.9108772,8.58209371 C15.1672982,9.05449858 21.7282807,11.7352053 22.9698246,12.2019914 C24.2116492,12.6692098 24.2593685,13.0538761 22.9852632,13.7356145 L22.9852632,13.7356145 L22.9852632,13.7356145 L22.9852632,13.7356145 Z" id="Shape" fill="#3C3737"></path>
                            <path d="M22.9852632,12.1738979 C21.7111579,12.855636 15.1107368,15.6413696 13.7055438,16.3935581 C12.3003509,17.1454584 11.5197193,17.1381108 10.4096842,16.5933829 C9.29950877,16.0489432 2.27564912,13.1362841 1.01038596,12.5154872 C0.377964912,12.205161 0.0454736842,11.9436743 0.0454736842,11.6963064 L0.0454736842,9.21873815 C0.0454736842,9.21873815 9.18975438,7.17539621 10.6661053,6.63167681 C12.1423158,6.08810146 12.6544561,6.06836389 13.9107368,6.54076876 C15.1671578,7.01317363 22.6790176,8.40416752 23.9207017,8.87109772 C23.9207017,8.87109772 23.9201404,11.0835776 23.9201404,11.313513 C23.9202808,11.5582876 23.6338246,11.8269777 22.9852632,12.1738979 L22.9852632,12.1738979 L22.9852632,12.1738979 L22.9852632,12.1738979 Z" id="Shape" fill="#000000"></path>
                            <path d="M22.9852632,9.6958973 C21.7111579,10.3776356 15.1107368,13.1633692 13.7055438,13.9155576 C12.3003509,14.6674579 11.5197193,14.6601102 10.4096842,14.1153824 C9.29950877,13.5709426 2.27564912,10.6581395 1.01038596,10.0374868 C-0.254877193,9.4168341 -0.281403509,8.9895231 0.96154386,8.48974498 C2.20435087,7.99025498 9.18975438,5.17685999 10.6662456,4.63328466 C12.1424562,4.08970931 12.6545965,4.06997174 13.9108772,4.54237662 C15.1672982,5.01478148 21.7282807,7.69534411 22.9698246,8.16227432 C24.2116492,8.62934861 24.2593685,9.01415903 22.9852632,9.6958973 L22.9852632,9.6958973 L22.9852632,9.6958973 L22.9852632,9.6958973 Z" id="Shape" fill="#3C3737"></path>
                            <path d="M22.9852632,7.98434813 C21.7111579,8.6660864 15.1107368,11.4519641 13.7055438,12.2041525 C12.3003509,12.9560527 11.5197193,12.9487051 10.4096842,12.4039774 C9.29950877,11.8595375 2.27564912,8.94673436 1.01038596,8.32608168 C0.377964912,8.01575534 0.0454736842,7.75412459 0.0454736842,7.50690083 L0.0454736842,5.02933253 C0.0454736842,5.02933253 9.18975438,2.98599061 10.6661053,2.44241526 C12.1423158,1.89869585 12.6544561,1.87910236 13.9107368,2.35150722 C15.1671578,2.82391208 22.6790176,4.21490597 23.9207017,4.68183618 C23.9207017,4.68183618 23.9201404,6.89431604 23.9201404,7.12410737 C23.9202808,7.36873788 23.6338246,7.63742806 22.9852632,7.98434813 L22.9852632,7.98434813 L22.9852632,7.98434813 L22.9852632,7.98434813 Z" id="Shape" fill="#000000"></path>
                            <path d="M22.9852632,5.50634762 C21.7111579,6.1880859 15.1107368,8.97396355 13.7055438,9.72600788 C12.3003509,10.4779082 11.5197193,10.4705606 10.4096842,9.92597676 C9.29964912,9.38139294 2.27564912,6.46873386 1.01038596,5.84808118 C-0.254877193,5.2274285 -0.281403509,4.79997341 0.96154386,4.30033936 C2.20435087,3.80070529 9.18975438,0.987598456 10.6662456,0.443879042 C12.1424562,-0.099840369 12.6545965,-0.119433861 13.9108772,0.353115072 C15.1672982,0.825519934 21.7282807,3.50608256 22.9698246,3.97301279 C24.2116492,4.43979892 24.2593685,4.82475341 22.9852632,5.50634762 L22.9852632,5.50634762 L22.9852632,5.50634762 L22.9852632,5.50634762 Z" id="Shape" fill="#3C3737"></path>
                            <polygon id="Shape" fill="#FFFFFF" points="15.111579 3.1205518 13.042807 3.34097858 12.5796491 4.48489277 11.8315789 3.20843437 9.44280702 2.98800758 11.2252632 2.32816792 10.6905263 1.31535724 12.3592982 1.9852818 13.9326316 1.45654565 13.5073685 2.50393307"></polygon>
                            <polygon id="Shape" fill="#FFFFFF" points="12.4561404 8.67012036 8.59508772 7.02628397 14.1277193 6.15466171"></polygon>
                            <ellipse id="Oval" fill="#FFFFFF" cx="7.1031579" cy="4.93294984" rx="2.95705264" ry="1.17661803"></ellipse>
                            <polygon id="Shape" fill="#000000" points="17.5564913 3.43318325 20.8308772 4.76150677 17.5592982 6.0883896"></polygon>
                            <polygon id="Shape" fill="#FFFFFF" points="13.9340351 4.90413587 17.5564913 3.43318325 17.5592982 6.0883896 17.2042105 6.23101871"></polygon>
                        </g>
                    </g>
                </g>
            </g>
        </g>
    </g>
</svg>