<?xml version="1.0" encoding="UTF-8" standalone="no"?>
<svg width="32px" height="32px" viewBox="0 0 32 32" version="1.1" xmlns="http://www.w3.org/2000/svg" xmlns:xlink="http://www.w3.org/1999/xlink">
    <!-- Generator: Sketch 40.2 (33826) - http://www.bohemiancoding.com/sketch -->
    <title>Slice</title>
    <desc>Created with Sketch.</desc>
    <defs></defs>
    <g id="Page-1" stroke="none" stroke-width="1" fill="none" fill-rule="evenodd">
        <g id="redis" transform="translate(6.000000, 7.000000)">
            <g id="Group">
                <path d="M19.154386,13.4055986 C18.0926316,13.9692674 12.5922807,16.2725432 11.4212865,16.8942228 C10.2502924,17.5161406 9.59976608,17.5100655 8.67473684,17.0596784 C7.7497076,16.6092912 1.89637427,14.2013103 0.841988304,13.6880286 C0.31497076,13.4314473 0.0378947368,13.2150089 0.0378947368,13.0104824 L0.0378947368,10.9622394 C0.0378947368,10.9622394 7.65812865,9.2726623 8.88842105,8.82322811 C10.1185965,8.37367481 10.5453801,8.35747469 11.5922807,8.74806432 C12.6392982,9.13865396 18.8991813,10.2889815 19.9339181,10.6749256 C19.9339181,10.6749256 19.9334503,12.5042287 19.9334503,12.6941036 C19.9335673,12.8966051 19.6948538,13.1187612 19.154386,13.4055986 L19.154386,13.4055986 Z" id="Shape" fill="#A41E11"></path>
                <path d="M19.154386,11.35676 C18.0926316,11.9201906 12.5922807,14.2237046 11.4212865,14.8453842 C10.2502924,15.467302 9.59976608,15.4612269 8.67473684,15.0108398 C7.74959064,14.5606909 1.89637427,12.1522335 0.841988304,11.63919 C-0.212397661,11.1259083 -0.234502924,10.7726027 0.80128655,10.3596188 C1.83695906,9.94639666 7.65812865,7.62036927 8.88853801,7.17081596 C10.1187135,6.72150089 10.5454971,6.70506254 11.5923977,7.09577129 C12.6394152,7.48636093 18.1069006,9.70279929 19.1415205,10.0887433 C20.1763743,10.4750447 20.2161404,10.7930911 19.154386,11.35676 L19.154386,11.35676 Z" id="Shape" fill="#D82C20"></path>
                <path d="M19.154386,10.0655152 C18.0926316,10.629184 12.5922807,12.9324598 11.4212865,13.5543776 C10.2502924,14.1760572 9.59976608,14.1699821 8.67473684,13.719595 C7.74959064,13.2694461 1.89637427,10.8612269 0.841988304,10.3479452 C0.31497076,10.0913639 0.0378947368,9.87516379 0.0378947368,9.67063728 L0.0378947368,7.62215605 C0.0378947368,7.62215605 7.65812865,5.93269803 8.88842105,5.48314473 C10.1185965,5.03371054 10.5453801,5.0173913 11.5922807,5.40798094 C12.6392982,5.79857058 18.8991813,6.94865992 19.9339181,7.33472305 C19.9339181,7.33472305 19.9334503,9.16402621 19.9334503,9.35413937 C19.9335673,9.55652174 19.6948538,9.77867778 19.154386,10.0655152 L19.154386,10.0655152 Z" id="Shape" fill="#A41E11"></path>
                <path d="M19.154386,8.01667659 C18.0926316,8.58034544 12.5922807,10.8836212 11.4212865,11.505539 C10.2502924,12.1272186 9.59976608,12.1211435 8.67473684,11.6707564 C7.74959064,11.2206075 1.89637427,8.81226921 0.841988304,8.29910661 C-0.212397661,7.78594401 -0.234502924,7.43263848 0.80128655,7.01941632 C1.83695906,6.6064324 7.65812865,4.28028588 8.88853801,3.8308517 C10.1187135,3.38141751 10.5454971,3.36509827 11.5923977,3.75568791 C12.6394152,4.14627755 18.1069006,6.36259678 19.1415205,6.74865992 C20.1763743,7.13484217 20.2161404,7.45300774 19.154386,8.01667659 L19.154386,8.01667659 Z" id="Shape" fill="#D82C20"></path>
                <path d="M19.154386,6.60154854 C18.0926316,7.16521739 12.5922807,9.46861227 11.4212865,10.0905301 C10.2502924,10.7122096 9.59976608,10.7061346 8.67473684,10.2557475 C7.74959064,9.80559857 1.89637427,7.39726027 0.841988304,6.88409768 C0.31497076,6.62751638 0.0378947368,6.41119714 0.0378947368,6.20678976 L0.0378947368,4.15830852 C0.0378947368,4.15830852 7.65812865,2.46885051 8.88842105,2.01941632 C10.1185965,1.56986301 10.5453801,1.55366289 11.5922807,1.94425253 C12.6392982,2.33484217 18.8991813,3.48493151 19.9339181,3.87099464 C19.9339181,3.87099464 19.9334503,5.7002978 19.9334503,5.89029184 C19.9335673,6.09255509 19.6948538,6.31471114 19.154386,6.60154854 L19.154386,6.60154854 Z" id="Shape" fill="#A41E11"></path>
                <path d="M19.154386,4.55270995 C18.0926316,5.1163788 12.5922807,7.41977367 11.4212865,8.04157236 C10.2502924,8.66325194 9.59976608,8.65717689 8.67473684,8.20690887 C7.7497076,7.75664086 1.89637427,5.34842168 0.841988304,4.83525908 C-0.212397661,4.32209649 -0.234502924,3.96867183 0.80128655,3.55556879 C1.83695906,3.14246575 7.65812865,0.816557475 8.88853801,0.367004169 C10.1187135,-0.0825491364 10.5454971,-0.0987492555 11.5923977,0.2919595 C12.6394152,0.682549136 18.1069006,2.89886837 19.1415205,3.28493151 C20.1763743,3.67087552 20.2161404,3.98916021 19.154386,4.55270995 L19.154386,4.55270995 Z" id="Shape" fill="#D82C20"></path>
                <polygon id="Shape" fill="#FFFFFF" points="12.5929825 2.58010721 10.8690058 2.76235855 10.4830409 3.70815962 9.85964912 2.65276951 7.86900585 2.47051817 9.35438596 1.92495533 8.90877193 1.08755211 10.2994152 1.64145325 11.6105263 1.20428827 11.2561404 2.07027993"></polygon>
                <polygon id="Shape" fill="#FFFFFF" points="10.380117 7.16855271 7.1625731 5.80941036 11.7730994 5.0887433"></polygon>
                <ellipse id="Oval" fill="#FFFFFF" cx="5.91929825" cy="4.07861823" rx="2.46421053" ry="0.972840977"></ellipse>
                <polygon id="Shape" fill="#7A0C00" points="14.6304094 2.8385944 17.3590643 3.93686718 14.6327485 5.03394878"></polygon>
                <polygon id="Shape" fill="#AD2115" points="11.6116959 4.05479452 14.6304094 2.8385944 14.6327485 5.03394878 14.3368421 5.15187612"></polygon>
            </g>
        </g>
    </g>
</svg>