<?xml version="1.0" encoding="UTF-8" standalone="no"?>
<svg width="32px" height="32px" viewBox="0 0 32 32" version="1.1" xmlns="http://www.w3.org/2000/svg" xmlns:xlink="http://www.w3.org/1999/xlink">
    <!-- Generator: Sketch 40.2 (33826) - http://www.bohemiancoding.com/sketch -->
    <title>Slice</title>
    <desc>Created with Sketch.</desc>
    <defs></defs>
    <g id="Page-1" stroke="none" stroke-width="1" fill="none" fill-rule="evenodd">
        <path d="M9.14285714,23.2778182 C9.14285714,23.9917576 8.89285714,24.5986061 8.39285714,25.0983636 C7.89285714,25.5981212 7.28571429,25.848 6.57142857,25.848 C5.85714286,25.848 5.25,25.5981212 4.75,25.0983636 C4.25,24.5986061 4,23.9917576 4,23.2778182 C4,22.5638788 4.25,21.9570303 4.75,21.4572727 C5.25,20.9575152 5.85714286,20.7076364 6.57142857,20.7076364 C7.28571429,20.7076364 7.89285714,20.9575152 8.39285714,21.4572727 C8.89285714,21.9570303 9.14285714,22.5638788 9.14285714,23.2778182 L9.14285714,23.2778182 Z M9.14285714,16.424 C9.14285714,17.1379394 8.89285714,17.7447879 8.39285714,18.2445455 C7.89285714,18.744303 7.28571429,18.9941818 6.57142857,18.9941818 C5.85714286,18.9941818 5.25,18.744303 4.75,18.2445455 C4.25,17.7447879 4,17.1379394 4,16.424 C4,15.7100606 4.25,15.1032121 4.75,14.6034545 C5.25,14.103697 5.85714286,13.8538182 6.57142857,13.8538182 C7.28571429,13.8538182 7.89285714,14.103697 8.39285714,14.6034545 C8.89285714,15.1032121 9.14285714,15.7100606 9.14285714,16.424 L9.14285714,16.424 Z M28,21.9927273 L28,24.5629091 C28,24.6789242 27.9575893,24.779322 27.8727679,24.8641023 C27.7879464,24.9488826 27.6875,24.9912727 27.5714286,24.9912727 L11.2857143,24.9912727 C11.1696429,24.9912727 11.0691964,24.9488826 10.984375,24.8641023 C10.8995536,24.779322 10.8571429,24.6789242 10.8571429,24.5629091 L10.8571429,21.9927273 C10.8571429,21.8767121 10.8995536,21.7763144 10.984375,21.6915341 C11.0691964,21.6067538 11.1696429,21.5643636 11.2857143,21.5643636 L27.5714286,21.5643636 C27.6875,21.5643636 27.7879464,21.6067538 27.8727679,21.6915341 C27.9575893,21.7763144 28,21.8767121 28,21.9927273 L28,21.9927273 Z M9.14285714,9.57018182 C9.14285714,10.2841212 8.89285714,10.8909697 8.39285714,11.3907273 C7.89285714,11.8904848 7.28571429,12.1403636 6.57142857,12.1403636 C5.85714286,12.1403636 5.25,11.8904848 4.75,11.3907273 C4.25,10.8909697 4,10.2841212 4,9.57018182 C4,8.85624242 4.25,8.24939394 4.75,7.74963636 C5.25,7.24987879 5.85714286,7 6.57142857,7 C7.28571429,7 7.89285714,7.24987879 8.39285714,7.74963636 C8.89285714,8.24939394 9.14285714,8.85624242 9.14285714,9.57018182 L9.14285714,9.57018182 Z M28,15.1389091 L28,17.7090909 C28,17.8251061 27.9575893,17.9255038 27.8727679,18.0102841 C27.7879464,18.0950644 27.6875,18.1374545 27.5714286,18.1374545 L11.2857143,18.1374545 C11.1696429,18.1374545 11.0691964,18.0950644 10.984375,18.0102841 C10.8995536,17.9255038 10.8571429,17.8251061 10.8571429,17.7090909 L10.8571429,15.1389091 C10.8571429,15.0228939 10.8995536,14.9224962 10.984375,14.8377159 C11.0691964,14.7529356 11.1696429,14.7105455 11.2857143,14.7105455 L27.5714286,14.7105455 C27.6875,14.7105455 27.7879464,14.7529356 27.8727679,14.8377159 C27.9575893,14.9224962 28,15.0228939 28,15.1389091 L28,15.1389091 Z M28,8.28509091 L28,10.8552727 C28,10.9712879 27.9575893,11.0716856 27.8727679,11.1564659 C27.7879464,11.2412462 27.6875,11.2836364 27.5714286,11.2836364 L11.2857143,11.2836364 C11.1696429,11.2836364 11.0691964,11.2412462 10.984375,11.1564659 C10.8995536,11.0716856 10.8571429,10.9712879 10.8571429,10.8552727 L10.8571429,8.28509091 C10.8571429,8.16907576 10.8995536,8.06867803 10.984375,7.98389773 C11.0691964,7.89911742 11.1696429,7.85672727 11.2857143,7.85672727 L27.5714286,7.85672727 C27.6875,7.85672727 27.7879464,7.89911742 27.8727679,7.98389773 C27.9575893,8.06867803 28,8.16907576 28,8.28509091 L28,8.28509091 Z" id="Shape" fill="#FFFFFF"></path>
    </g>
</svg>